<svg
  xmlns="http://www.w3.org/2000/svg"
  version="1.1"
  xmlns:xlink="http://www.w3.org/1999/xlink"
  xmlns:svgjs="http://svgjs.dev/svgjs"
  width="2000"
  height="1573"
  viewBox="0 0 2000 1573"
>
  <g transform="matrix(1,0,0,1,-0.3663001757223583,0.6368421052630993)">
    <svg
      viewBox="0 0 314 247"
      data-background-color="#ffffff"
      preserveAspectRatio="xMidYMid meet"
      height="1573"
      width="2000"
      xmlns="http://www.w3.org/2000/svg"
      xmlns:xlink="http://www.w3.org/1999/xlink"
    >
      <g
        id="tight-bounds"
        transform="matrix(1,0,0,1,0.05750912758841764,-0.09999999999999432)"
      >
        <svg
          viewBox="0 0 313.88498174482316 247.2"
          height="247.2"
          width="313.88498174482316"
        >
          <g>
            <svg
              viewBox="0 0 397.4975999999999 313.0490862410322"
              height="247.2"
              width="313.88498174482316"
            >
              <g>
                <rect
                  width="397.4975999999999"
                  height="9.58828004748387"
                  x="0"
                  y="172.038016"
                  fill="#000000"
                  opacity="1"
                  stroke-width="0"
                  stroke="transparent"
                  fill-opacity="1"
                  class="rect-qz-0"
                  data-fill-palette-color="primary"
                  rx="1%"
                  id="qz-0"
                  data-palette-color="#ff908b"
                ></rect>
              </g>
              <g
                transform="matrix(1,0,0,1,0.9887999999999693,206.72650559587095)"
              >
                <svg
                  viewBox="0 0 395.52 106.32258064516128"
                  height="106.32258064516128"
                  width="395.52"
                >
                  <g id="textblocktransform">
                    <svg
                      viewBox="0 0 395.52 106.32258064516128"
                      height="106.32258064516128"
                      width="395.52"
                      id="textblock"
                    >
                      <g>
                        <svg
                          viewBox="0 0 395.52 106.32258064516128"
                          height="106.32258064516128"
                          width="395.52"
                        >
                          <g transform="matrix(1,0,0,1,0,0)">
                            <svg
                              width="395.52"
                              viewBox="4.08 -26.37 100.89 26.86"
                              height="106.32258064516128"
                              data-palette-color="#ff908b"
                            >
                              <g
                                class="wordmark-text-0"
                                data-fill-palette-color="primary"
                                id="text-0"
                              >
                                <path
                                  d="M4.08 0L4.08-25.88 8.86-25.88 9.69-18.16Q10.03-18.8 10.4-19.47 10.77-20.14 11.13-20.76 11.5-21.39 11.82-21.9 12.13-22.41 12.35-22.75L12.35-22.75Q12.87-23.51 13.51-24.18 14.16-24.85 14.92-25.33 15.67-25.81 16.55-26.09 17.43-26.37 18.46-26.37L18.46-26.37Q19.17-26.37 19.87-26.2 20.58-26.03 21.07-25.66L21.07-25.66 20.43-20.21Q20-20.34 19.41-20.37 18.82-20.41 18.36-20.41L18.36-20.41Q16.8-20.41 15.58-19.96 14.36-19.51 13.37-18.71 12.38-17.92 11.56-16.85 10.74-15.77 9.99-14.53L9.99-14.53 9.99 0 4.08 0ZM37.55 0.49L37.55 0.49Q34.49 0.49 32.16-0.54 29.83-1.56 28.24-3.31 26.66-5.05 25.84-7.35 25.02-9.64 25.02-12.21L25.02-12.21Q25.02-15.16 26.07-17.74 27.12-20.31 29.01-22.23 30.91-24.15 33.52-25.26 36.13-26.37 39.26-26.37L39.26-26.37Q42.31-26.37 44.65-25.34 46.99-24.32 48.58-22.56 50.17-20.8 50.99-18.49 51.8-16.19 51.8-13.62L51.8-13.62Q51.8-10.64 50.74-8.07 49.68-5.49 47.78-3.59 45.87-1.68 43.26-0.6 40.65 0.49 37.55 0.49ZM38.57-3.74L38.57-3.74Q40.13-3.74 41.43-4.38 42.72-5.03 43.65-6.19 44.58-7.35 45.09-8.96 45.6-10.57 45.6-12.52L45.6-12.52Q45.6-14.43 45.1-16.16 44.6-17.9 43.65-19.23 42.7-20.56 41.33-21.35 39.96-22.14 38.23-22.14L38.23-22.14Q36.64-22.14 35.35-21.48 34.06-20.83 33.14-19.65 32.22-18.48 31.71-16.86 31.2-15.23 31.2-13.31L31.2-13.31Q31.2-11.38 31.7-9.64 32.2-7.91 33.15-6.59 34.1-5.27 35.47-4.5 36.84-3.74 38.57-3.74ZM56.76-1.22L57.81-5.66 58.25-5.93Q59.2-5.42 60.24-5 61.27-4.59 62.3-4.31 63.33-4.03 64.3-3.88 65.28-3.74 66.13-3.74L66.13-3.74Q68.35-3.74 69.61-4.66 70.87-5.59 70.87-7.03L70.87-7.03Q70.87-8.01 70.3-8.64 69.72-9.28 68.78-9.73 67.84-10.18 66.65-10.52 65.45-10.86 64.19-11.24 62.93-11.62 61.74-12.11 60.54-12.6 59.6-13.35 58.66-14.11 58.09-15.2 57.51-16.28 57.51-17.87L57.51-17.87Q57.51-19.65 58.28-21.22 59.05-22.78 60.48-23.91 61.91-25.05 63.95-25.71 65.99-26.37 68.53-26.37L68.53-26.37Q69.16-26.37 70-26.32 70.84-26.27 71.76-26.16 72.68-26.05 73.6-25.88 74.53-25.71 75.34-25.44L75.34-25.44 74.26-21.07 73.73-20.75Q72.99-21.12 72.15-21.39 71.31-21.66 70.47-21.81 69.62-21.97 68.83-22.06 68.04-22.14 67.43-22.14L67.43-22.14Q65.28-22.14 64.07-21.29 62.86-20.43 62.86-18.99L62.86-18.99Q62.86-17.99 63.45-17.35 64.03-16.7 64.97-16.25 65.91-15.8 67.13-15.47 68.35-15.14 69.61-14.76 70.87-14.38 72.09-13.89 73.31-13.4 74.25-12.65 75.19-11.89 75.78-10.79 76.36-9.69 76.36-8.08L76.36-8.08Q76.36-6.27 75.58-4.7 74.8-3.13 73.36-1.98 71.92-0.83 69.89-0.17 67.87 0.49 65.4 0.49L65.4 0.49Q63.37 0.49 61.1 0.05 58.83-0.39 56.76-1.22L56.76-1.22ZM104.05-5.32L104.05-2.37Q102.97-1.61 101.73-1.07 100.48-0.54 99.16-0.18 97.84 0.17 96.54 0.33 95.23 0.49 94.06 0.49L94.06 0.49Q91.35 0.49 89.02-0.34 86.69-1.17 84.97-2.78 83.24-4.39 82.27-6.75 81.29-9.11 81.29-12.16L81.29-12.16Q81.29-15.41 82.39-18.04 83.49-20.68 85.33-22.52 87.18-24.37 89.6-25.37 92.03-26.37 94.67-26.37L94.67-26.37Q96.87-26.37 98.76-25.65 100.65-24.93 102.03-23.51 103.41-22.09 104.19-19.97 104.97-17.85 104.97-15.04L104.97-15.04Q104.97-14.36 104.91-13.59 104.85-12.82 104.7-12.08L104.7-12.08 87.42-12.08Q87.42-10.11 88.12-8.59 88.81-7.08 90.08-6.07 91.35-5.05 93.13-4.53 94.91-4 97.06-4L97.06-4Q97.67-4 98.49-4.05 99.31-4.1 100.24-4.25 101.16-4.39 102.14-4.65 103.12-4.91 104.05-5.32L104.05-5.32ZM87.42-14.97L99.48-14.97Q99.48-16.75 99.03-18.09 98.58-19.43 97.8-20.34 97.01-21.24 95.98-21.69 94.94-22.14 93.74-22.14L93.74-22.14Q92.4-22.14 91.25-21.61 90.1-21.07 89.25-20.1 88.4-19.14 87.91-17.82 87.42-16.5 87.42-14.97L87.42-14.97Z"
                                  fill="#000000"
                                  data-fill-palette-color="primary"
                                ></path>
                              </g>
                            </svg>
                          </g>
                        </svg>
                      </g>
                    </svg>
                  </g>
                </svg>
              </g>
              <g transform="matrix(1,0,0,1,167.21132558501318,0)">
                <svg
                  viewBox="0 0 63.07494882997354 146.93780645161291"
                  height="146.93780645161291"
                  width="63.07494882997354"
                >
                  <g>
                    <svg
                      xmlns="http://www.w3.org/2000/svg"
                      xmlns:xlink="http://www.w3.org/1999/xlink"
                      version="1.1"
                      x="0"
                      y="0"
                      viewBox="29.818789971159937 2.002 40.04550662281111 93.289"
                      enable-background="new 0 0 100 100"
                      xml:space="preserve"
                      height="146.93780645161291"
                      width="63.07494882997354"
                      class="icon-icon-0"
                      data-fill-palette-color="accent"
                      id="icon-0"
                    >
                      <g fill="#8d021f" data-fill-palette-color="accent">
                        <g fill="#8d021f" data-fill-palette-color="accent">
                          <g fill="#8d021f" data-fill-palette-color="accent">
                            <path
                              d="M69.772 19.265c0.365 0.583 0.126 14.385-10.031 17.418 3.1-8.545-2.24-25.583-2.24-25.583C59.502 13.048 68.829 17.658 69.772 19.265z"
                              fill="#000000"
                              data-fill-palette-color="accent"
                            ></path>
                            <path
                              d="M48.381 39.289H48.36c-4.241-0.092-8.759-1.401-10.555-4.909-4.174-8.151 11.658-12.93 17.557-25.494 1.208 7.728 6.062 22.583 1.762 28.204C56.15 38.362 52.392 39.369 48.381 39.289z"
                              fill="#000000"
                              data-fill-palette-color="accent"
                            ></path>
                            <path
                              d="M53.927 5.815c0 0 1.015 0.667 0.516 2.11-3.272 6.389-9.204 11.696-17.011 18.064C41.006 14.315 51.074 10.204 53.927 5.815z"
                              fill="#000000"
                              data-fill-palette-color="accent"
                            ></path>
                            <path
                              d="M49.472 2.002c0 0 2.647 2.03 2.744 3.067-0.075 0.792-2.345 2.563-4.82 4.56C47.315 7.158 49.472 2.002 49.472 2.002z"
                              fill="#000000"
                              data-fill-palette-color="accent"
                            ></path>
                            <path
                              d="M47.563 3.839c-1.321 1.12-1.984 7.128-1.984 7.128s-5.73 4.933-8.562 11.633c-0.617-2.954 3.99-15.208 3.302-17.562C40.716 3.953 46.535 4.418 47.563 3.839z"
                              fill="#000000"
                              data-fill-palette-color="accent"
                            ></path>
                            <path
                              d="M38.174 7.481c0.164 4.078-2.513 10.5-2.832 13.634 0 0-4.027-6.834-0.957-12.384C35.473 7.447 38.057 6.873 38.174 7.481z"
                              fill="#000000"
                              data-fill-palette-color="accent"
                            ></path>
                            <path
                              d="M34.436 21.174c1.737 1.007 2.207 5.529 2.207 5.529s-3.155 3.587-0.533 8.923C23.008 32.488 34.436 21.174 34.436 21.174z"
                              fill="#000000"
                              data-fill-palette-color="accent"
                            ></path>
                          </g>
                        </g>
                        <g fill="#8d021f" data-fill-palette-color="accent">
                          <path
                            d="M51.655 95.291h-3.81v-54.17c0 0 0.99 0.131 1.864 0.171 0.917 0.042 1.946-0.171 1.946-0.171V95.291z"
                            fill="#000000"
                            data-fill-palette-color="accent"
                          ></path>
                        </g>
                        <path
                          d="M53.345 66.584c3.263-9.916 7.369-8.113 12.172-13.822 0 0 0.727 8.743-1.698 11.317C62.121 65.883 53.365 68.987 53.345 66.584z"
                          fill="#000000"
                          data-fill-palette-color="accent"
                        ></path>
                        <g fill="#8d021f" data-fill-palette-color="accent">
                          <g fill="#8d021f" data-fill-palette-color="accent">
                            <path
                              d="M45.196 57.097c-0.02 2.404-8.773-0.701-10.472-2.504-2.424-2.572-1.699-11.317-1.699-11.317C37.829 48.985 41.935 47.182 45.196 57.097z"
                              fill="#000000"
                              data-fill-palette-color="accent"
                            ></path>
                          </g>
                        </g>
                      </g>
                    </svg>
                  </g>
                </svg>
              </g>
              <g></g>
            </svg>
          </g>
          <defs></defs>
        </svg>
        <rect
          width="313.88498174482316"
          height="247.2"
          fill="none"
          stroke="none"
          visibility="hidden"
        ></rect>
      </g>
    </svg>
  </g>
</svg>
